# xmcd
#
# Track frame offsets:
#	150
#	15110
#	32126
#	49173
#	65095
#	84831
#	106212
#	130263
#	150048
#	168739
#	186812
#	207886
#
# Disc length: 2994 seconds
#
# Revision: 0
# Processed by: cddbd v1.5.2PL0 Copyright (c) Steve Scherf et al.
# Submitted via: EZCDAudioConverter 2.1.5.1
#
DISCID=8e0bb00c
DTITLE=Southern Comfort - Blues N' Roll
DYEAR=2014
DGENRE=
TTITLE0=Könnyen jön, könnyen megy
TTITLE1=Ami kell
TTITLE2=10 perc
TTITLE3=Szállt a füst
TTITLE4=Vigyél magaddal
TTITLE5=Mégsem fáj
TTITLE6=Rázd fel a véred
TTITLE7=Apró szikra
TTITLE8=Jó helyen, jó időben
TTITLE9=Nem az otthonom
TTITLE10=RNG
TTITLE11=Csak Te vagy (bonus)
EXTD=
EXTT0=
EXTT1=
EXTT2=
EXTT3=
EXTT4=
EXTT5=
EXTT6=
EXTT7=
EXTT8=
EXTT9=
EXTT10=
EXTT11=
PLAYORDER=
